<?xml version="1.0" standalone="no"?>
<!DOCTYPE svg PUBLIC "-//W3C//DTD SVG 20010904//EN"
 "http://www.w3.org/TR/2001/REC-SVG-20010904/DTD/svg10.dtd">
<svg version="1.0" xmlns="http://www.w3.org/2000/svg"
 width="1300.000000pt" height="1234.000000pt" viewBox="0 0 1300.000000 1234.000000"
 preserveAspectRatio="xMidYMid meet">

<g transform="translate(0.000000,1234.000000) scale(0.100000,-0.100000)"
fill="#000000" stroke="none">
<path d="M3803 9520 c-68 -16 -149 -65 -214 -129 -109 -109 -172 -261 -239
-571 -52 -243 -90 -575 -90 -788 l0 -82 -40 -36 c-100 -90 -253 -284 -352
-444 -158 -258 -280 -609 -333 -965 -10 -66 -20 -122 -21 -124 -2 -1 -69 24
-151 57 -345 139 -749 304 -768 312 -98 45 -140 50 -174 22 -25 -19 -30 -66
-13 -99 15 -28 -45 -3 842 -360 129 -52 239 -98 243 -103 5 -4 5 -49 2 -99
l-8 -91 -426 0 c-343 -1 -429 -3 -444 -14 -26 -20 -37 -69 -23 -97 23 -48 34
-49 479 -49 l417 0 0 -109 0 -109 -42 -15 c-24 -8 -122 -43 -218 -77 -96 -34
-305 -107 -463 -163 -158 -56 -297 -110 -308 -120 -23 -21 -25 -74 -4 -104 20
-28 60 -34 109 -16 23 8 115 41 206 73 91 32 237 83 325 114 384 136 418 147
413 129 -5 -19 16 -160 43 -288 108 -524 347 -971 713 -1340 535 -539 1278
-859 2281 -984 340 -43 730 -57 1127 -42 784 30 1379 132 1933 332 327 119
682 308 897 479 35 28 81 65 103 82 65 52 277 267 338 344 298 372 483 825
548 1340 l11 91 182 -64 c99 -35 271 -96 381 -135 110 -38 249 -88 308 -109
116 -42 146 -43 172 -6 34 48 8 116 -49 133 -37 11 -560 194 -596 209 -19 7
-115 42 -214 76 l-178 62 6 45 c3 25 6 73 6 108 l0 64 419 0 420 0 25 23 c14
12 28 33 30 47 4 30 -17 75 -39 84 -9 3 -207 6 -440 6 l-423 0 -7 89 c-4 49
-4 94 -1 100 4 5 23 15 44 22 20 6 60 22 87 34 28 12 140 58 250 102 528 212
682 276 700 294 28 27 26 86 -4 110 -13 11 -34 19 -48 19 -20 0 -408 -150
-568 -219 -149 -65 -476 -193 -481 -188 -4 3 -17 63 -30 132 -94 509 -316 961
-635 1292 l-79 82 0 124 c0 237 -34 556 -86 794 -13 62 -24 116 -24 119 0 4
-7 0 -17 -7 -15 -13 -15 -12 -3 8 35 55 -86 346 -191 458 -47 49 -81 75 -138
102 -71 35 -83 37 -191 41 -133 5 -192 -5 -345 -53 -105 -34 -120 -42 -275
-156 -91 -65 -201 -146 -245 -177 -44 -32 -180 -132 -303 -222 l-223 -163
-107 12 c-485 55 -701 65 -1242 58 -239 -3 -473 -8 -520 -12 -125 -9 -493 -45
-510 -50 -19 -6 -55 17 -267 173 -50 37 -174 127 -275 201 -100 74 -232 171
-293 215 -90 66 -127 86 -207 114 -53 18 -128 39 -165 47 -71 15 -255 18 -310
5z m255 -156 c42 -9 112 -27 155 -41 82 -27 113 -48 529 -352 101 -74 214
-157 251 -184 77 -56 76 -58 -23 -76 -583 -105 -1060 -288 -1448 -554 -42 -29
-83 -56 -91 -61 -12 -7 -13 7 -7 95 10 146 42 405 66 528 19 99 20 105 3 125
-17 20 -17 20 2 4 18 -17 19 -14 46 90 36 142 62 210 109 280 93 139 220 185
408 146z m5159 -24 c67 -33 124 -93 165 -174 64 -126 137 -435 173 -731 21
-178 33 -405 20 -397 -5 3 -41 28 -80 57 -362 266 -828 463 -1372 580 -93 20
-175 39 -185 43 -12 5 35 44 184 152 110 80 257 187 326 238 70 51 155 112
188 137 81 58 196 100 354 129 65 12 164 -3 227 -34z m-2167 -681 c102 -6 205
-12 230 -14 727 -69 1264 -204 1720 -434 832 -418 1277 -1113 1349 -2111 63
-878 -173 -1611 -684 -2125 -491 -494 -1185 -795 -2155 -935 -517 -75 -1211
-100 -1670 -60 -63 5 -144 12 -180 15 -165 15 -449 62 -665 111 -655 149
-1215 437 -1604 825 -624 623 -860 1481 -700 2539 122 806 511 1365 1200 1724
467 243 1042 387 1814 452 370 31 920 36 1345 13z"/>
<path d="M8320 6735 c-90 -15 -210 -63 -290 -116 -124 -83 -235 -232 -274
-370 -25 -85 -24 -129 3 -151 51 -40 96 -15 112 63 32 155 142 300 286 376 96
51 181 73 290 73 158 0 273 -43 380 -143 49 -46 71 -60 94 -60 39 0 62 24 62
63 0 59 -154 187 -279 231 -129 46 -250 57 -384 34z"/>
<path d="M4382 6710 c-101 -27 -200 -81 -277 -152 -78 -72 -99 -106 -85 -142
10 -27 38 -46 66 -46 10 0 49 31 88 69 123 119 254 167 426 158 189 -11 352
-97 455 -241 49 -69 60 -93 84 -181 12 -45 23 -63 44 -75 24 -13 30 -13 54 0
46 26 50 57 19 154 -68 207 -240 372 -468 447 -94 32 -306 36 -406 9z"/>
<path d="M6442 5490 c-21 -20 -22 -27 -22 -252 l0 -231 -32 -42 c-152 -198
-477 -220 -664 -44 -27 27 -61 70 -74 96 -29 60 -45 72 -91 73 -40 0 -63 -19
-73 -61 -9 -41 46 -140 120 -214 106 -106 273 -174 426 -175 65 0 175 21 239
46 56 22 165 93 203 133 l29 30 56 -50 c69 -62 193 -125 286 -144 230 -48 477
41 611 220 58 78 73 125 50 160 -22 33 -58 47 -90 35 -13 -5 -41 -34 -61 -64
-102 -154 -275 -229 -458 -198 -130 22 -233 88 -298 191 l-29 45 0 213 c0 200
-1 214 -20 233 -26 26 -80 26 -108 0z"/>
</g>
</svg>
